<svg xmlns="http://www.w3.org/2000/svg" xmlns:xlink="http://www.w3.org/1999/xlink" width="1200" zoomAndPan="magnify" viewBox="0 0 900 225" height="300" preserveAspectRatio="xMidYMid meet" version="1.0"><defs><filter x="0%" y="0%" width="100%" height="100%" id="00b1cdb631"><feColorMatrix values="0 0 0 0 1 0 0 0 0 1 0 0 0 0 1 0 0 0 1 0" color-interpolation-filters="sRGB"/></filter><g/><clipPath id="b7d4cc185d"><path d="M 0 0 L 523.179688 0 L 523.179688 225 L 0 225 Z M 0 0 " clip-rule="nonzero"/></clipPath><clipPath id="b5a8cd5e84"><path d="M 0 0 L 523.179688 0 L 523.179688 225 L 0 225 Z M 0 0 " clip-rule="nonzero"/></clipPath><clipPath id="54ceb840f5"><path d="M 0 0 L 522.421875 0 L 522.421875 225 L 0 225 Z M 0 0 " clip-rule="nonzero"/></clipPath><linearGradient x1="-4.594972" gradientTransform="matrix(0.759666, 0, 0, 0.760124, 3.878467, 7.671133)" y1="286.422972" x2="487.256415" gradientUnits="userSpaceOnUse" y2="-205.428415" id="9140c88b76"><stop stop-opacity="1" stop-color="rgb(57.649231%, 34.509277%, 96.859741%)" offset="0"/><stop stop-opacity="1" stop-color="rgb(57.649231%, 34.509277%, 96.859741%)" offset="0.03125"/><stop stop-opacity="1" stop-color="rgb(57.487488%, 34.712219%, 96.83075%)" offset="0.0351562"/><stop stop-opacity="1" stop-color="rgb(57.325745%, 34.915161%, 96.801758%)" offset="0.0390625"/><stop stop-opacity="1" stop-color="rgb(57.044983%, 35.269165%, 96.749878%)" offset="0.0429688"/><stop stop-opacity="1" stop-color="rgb(56.764221%, 35.624695%, 96.699524%)" offset="0.046875"/><stop stop-opacity="1" stop-color="rgb(56.481934%, 35.978699%, 96.64917%)" offset="0.0507812"/><stop stop-opacity="1" stop-color="rgb(56.201172%, 36.334229%, 96.598816%)" offset="0.0546875"/><stop stop-opacity="1" stop-color="rgb(55.918884%, 36.688232%, 96.546936%)" offset="0.0585937"/><stop stop-opacity="1" stop-color="rgb(55.638123%, 37.043762%, 96.496582%)" offset="0.0625"/><stop stop-opacity="1" stop-color="rgb(55.355835%, 37.397766%, 96.446228%)" offset="0.0664062"/><stop stop-opacity="1" stop-color="rgb(55.075073%, 37.75177%, 96.395874%)" offset="0.0703125"/><stop stop-opacity="1" stop-color="rgb(54.794312%, 38.105774%, 96.34552%)" offset="0.0742187"/><stop stop-opacity="1" stop-color="rgb(54.51355%, 38.461304%, 96.295166%)" offset="0.078125"/><stop stop-opacity="1" stop-color="rgb(54.231262%, 38.815308%, 96.243286%)" offset="0.0820312"/><stop stop-opacity="1" stop-color="rgb(53.9505%, 39.170837%, 96.192932%)" offset="0.0859375"/><stop stop-opacity="1" stop-color="rgb(53.668213%, 39.524841%, 96.142578%)" offset="0.0898437"/><stop stop-opacity="1" stop-color="rgb(53.387451%, 39.878845%, 96.092224%)" offset="0.09375"/><stop stop-opacity="1" stop-color="rgb(53.105164%, 40.232849%, 96.04187%)" offset="0.0976563"/><stop stop-opacity="1" stop-color="rgb(52.824402%, 40.588379%, 95.991516%)" offset="0.101562"/><stop stop-opacity="1" stop-color="rgb(52.54364%, 40.942383%, 95.939636%)" offset="0.105469"/><stop stop-opacity="1" stop-color="rgb(52.262878%, 41.297913%, 95.889282%)" offset="0.109375"/><stop stop-opacity="1" stop-color="rgb(51.980591%, 41.651917%, 95.838928%)" offset="0.113281"/><stop stop-opacity="1" stop-color="rgb(51.699829%, 42.00592%, 95.788574%)" offset="0.117187"/><stop stop-opacity="1" stop-color="rgb(51.417542%, 42.359924%, 95.736694%)" offset="0.121094"/><stop stop-opacity="1" stop-color="rgb(51.13678%, 42.715454%, 95.68634%)" offset="0.125"/><stop stop-opacity="1" stop-color="rgb(50.854492%, 43.069458%, 95.635986%)" offset="0.128906"/><stop stop-opacity="1" stop-color="rgb(50.57373%, 43.424988%, 95.585632%)" offset="0.132812"/><stop stop-opacity="1" stop-color="rgb(50.291443%, 43.778992%, 95.535278%)" offset="0.136719"/><stop stop-opacity="1" stop-color="rgb(50.010681%, 44.132996%, 95.484924%)" offset="0.140625"/><stop stop-opacity="1" stop-color="rgb(49.729919%, 44.487%, 95.433044%)" offset="0.144531"/><stop stop-opacity="1" stop-color="rgb(49.449158%, 44.842529%, 95.38269%)" offset="0.148437"/><stop stop-opacity="1" stop-color="rgb(49.16687%, 45.196533%, 95.332336%)" offset="0.152344"/><stop stop-opacity="1" stop-color="rgb(48.886108%, 45.552063%, 95.281982%)" offset="0.15625"/><stop stop-opacity="1" stop-color="rgb(48.603821%, 45.906067%, 95.230103%)" offset="0.160156"/><stop stop-opacity="1" stop-color="rgb(48.323059%, 46.260071%, 95.179749%)" offset="0.164062"/><stop stop-opacity="1" stop-color="rgb(48.040771%, 46.614075%, 95.129395%)" offset="0.167969"/><stop stop-opacity="1" stop-color="rgb(47.76001%, 46.969604%, 95.079041%)" offset="0.171875"/><stop stop-opacity="1" stop-color="rgb(47.479248%, 47.323608%, 95.028687%)" offset="0.175781"/><stop stop-opacity="1" stop-color="rgb(47.198486%, 47.679138%, 94.978333%)" offset="0.179687"/><stop stop-opacity="1" stop-color="rgb(46.916199%, 48.033142%, 94.926453%)" offset="0.183594"/><stop stop-opacity="1" stop-color="rgb(46.635437%, 48.387146%, 94.876099%)" offset="0.1875"/><stop stop-opacity="1" stop-color="rgb(46.353149%, 48.74115%, 94.825745%)" offset="0.191406"/><stop stop-opacity="1" stop-color="rgb(46.072388%, 49.09668%, 94.775391%)" offset="0.195312"/><stop stop-opacity="1" stop-color="rgb(45.7901%, 49.450684%, 94.725037%)" offset="0.199219"/><stop stop-opacity="1" stop-color="rgb(45.509338%, 49.806213%, 94.674683%)" offset="0.203125"/><stop stop-opacity="1" stop-color="rgb(45.228577%, 50.160217%, 94.622803%)" offset="0.207031"/><stop stop-opacity="1" stop-color="rgb(44.947815%, 50.514221%, 94.572449%)" offset="0.210937"/><stop stop-opacity="1" stop-color="rgb(44.665527%, 50.868225%, 94.522095%)" offset="0.214844"/><stop stop-opacity="1" stop-color="rgb(44.384766%, 51.223755%, 94.471741%)" offset="0.21875"/><stop stop-opacity="1" stop-color="rgb(44.102478%, 51.577759%, 94.419861%)" offset="0.222656"/><stop stop-opacity="1" stop-color="rgb(43.821716%, 51.933289%, 94.369507%)" offset="0.226562"/><stop stop-opacity="1" stop-color="rgb(43.539429%, 52.287292%, 94.319153%)" offset="0.230469"/><stop stop-opacity="1" stop-color="rgb(43.258667%, 52.641296%, 94.268799%)" offset="0.234375"/><stop stop-opacity="1" stop-color="rgb(42.976379%, 52.9953%, 94.218445%)" offset="0.238281"/><stop stop-opacity="1" stop-color="rgb(42.695618%, 53.35083%, 94.168091%)" offset="0.242187"/><stop stop-opacity="1" stop-color="rgb(42.414856%, 53.704834%, 94.116211%)" offset="0.246094"/><stop stop-opacity="1" stop-color="rgb(42.134094%, 54.060364%, 94.065857%)" offset="0.25"/><stop stop-opacity="1" stop-color="rgb(41.851807%, 54.414368%, 94.015503%)" offset="0.253906"/><stop stop-opacity="1" stop-color="rgb(41.571045%, 54.768372%, 93.965149%)" offset="0.257812"/><stop stop-opacity="1" stop-color="rgb(41.288757%, 55.122375%, 93.914795%)" offset="0.261719"/><stop stop-opacity="1" stop-color="rgb(41.007996%, 55.477905%, 93.864441%)" offset="0.265625"/><stop stop-opacity="1" stop-color="rgb(40.725708%, 55.831909%, 93.812561%)" offset="0.269531"/><stop stop-opacity="1" stop-color="rgb(40.444946%, 56.187439%, 93.762207%)" offset="0.273438"/><stop stop-opacity="1" stop-color="rgb(40.164185%, 56.541443%, 93.711853%)" offset="0.277344"/><stop stop-opacity="1" stop-color="rgb(39.883423%, 56.895447%, 93.661499%)" offset="0.28125"/><stop stop-opacity="1" stop-color="rgb(39.601135%, 57.249451%, 93.609619%)" offset="0.285156"/><stop stop-opacity="1" stop-color="rgb(39.320374%, 57.60498%, 93.559265%)" offset="0.289062"/><stop stop-opacity="1" stop-color="rgb(39.038086%, 57.958984%, 93.508911%)" offset="0.292969"/><stop stop-opacity="1" stop-color="rgb(38.757324%, 58.314514%, 93.458557%)" offset="0.296875"/><stop stop-opacity="1" stop-color="rgb(38.475037%, 58.668518%, 93.408203%)" offset="0.300781"/><stop stop-opacity="1" stop-color="rgb(38.194275%, 59.022522%, 93.357849%)" offset="0.304688"/><stop stop-opacity="1" stop-color="rgb(37.786865%, 59.381104%, 93.293762%)" offset="0.308594"/><stop stop-opacity="1" stop-color="rgb(37.379456%, 59.739685%, 93.231201%)" offset="0.3125"/><stop stop-opacity="1" stop-color="rgb(36.923218%, 60.099792%, 93.164062%)" offset="0.316406"/><stop stop-opacity="1" stop-color="rgb(36.468506%, 60.4599%, 93.096924%)" offset="0.320313"/><stop stop-opacity="1" stop-color="rgb(36.012268%, 60.820007%, 93.029785%)" offset="0.324219"/><stop stop-opacity="1" stop-color="rgb(35.55603%, 61.180115%, 92.962646%)" offset="0.328125"/><stop stop-opacity="1" stop-color="rgb(35.099792%, 61.540222%, 92.893982%)" offset="0.332031"/><stop stop-opacity="1" stop-color="rgb(34.645081%, 61.90033%, 92.826843%)" offset="0.335937"/><stop stop-opacity="1" stop-color="rgb(34.188843%, 62.260437%, 92.759705%)" offset="0.339844"/><stop stop-opacity="1" stop-color="rgb(33.732605%, 62.620544%, 92.692566%)" offset="0.34375"/><stop stop-opacity="1" stop-color="rgb(33.276367%, 62.979126%, 92.623901%)" offset="0.347656"/><stop stop-opacity="1" stop-color="rgb(32.821655%, 63.339233%, 92.556763%)" offset="0.351562"/><stop stop-opacity="1" stop-color="rgb(32.365417%, 63.699341%, 92.489624%)" offset="0.355469"/><stop stop-opacity="1" stop-color="rgb(31.90918%, 64.059448%, 92.422485%)" offset="0.359375"/><stop stop-opacity="1" stop-color="rgb(31.452942%, 64.419556%, 92.355347%)" offset="0.363281"/><stop stop-opacity="1" stop-color="rgb(30.99823%, 64.779663%, 92.288208%)" offset="0.367187"/><stop stop-opacity="1" stop-color="rgb(30.541992%, 65.139771%, 92.219543%)" offset="0.371094"/><stop stop-opacity="1" stop-color="rgb(30.08728%, 65.499878%, 92.152405%)" offset="0.375"/><stop stop-opacity="1" stop-color="rgb(29.631042%, 65.859985%, 92.085266%)" offset="0.378906"/><stop stop-opacity="1" stop-color="rgb(29.174805%, 66.220093%, 92.018127%)" offset="0.382812"/><stop stop-opacity="1" stop-color="rgb(28.718567%, 66.5802%, 91.949463%)" offset="0.386719"/><stop stop-opacity="1" stop-color="rgb(28.263855%, 66.940308%, 91.882324%)" offset="0.390625"/><stop stop-opacity="1" stop-color="rgb(27.807617%, 67.298889%, 91.815186%)" offset="0.394531"/><stop stop-opacity="1" stop-color="rgb(27.351379%, 67.658997%, 91.748047%)" offset="0.398437"/><stop stop-opacity="1" stop-color="rgb(26.895142%, 68.019104%, 91.680908%)" offset="0.402344"/><stop stop-opacity="1" stop-color="rgb(26.44043%, 68.379211%, 91.61377%)" offset="0.40625"/><stop stop-opacity="1" stop-color="rgb(25.984192%, 68.739319%, 91.545105%)" offset="0.410156"/><stop stop-opacity="1" stop-color="rgb(25.527954%, 69.099426%, 91.477966%)" offset="0.414062"/><stop stop-opacity="1" stop-color="rgb(25.071716%, 69.459534%, 91.410828%)" offset="0.417969"/><stop stop-opacity="1" stop-color="rgb(24.617004%, 69.819641%, 91.343689%)" offset="0.421875"/><stop stop-opacity="1" stop-color="rgb(24.160767%, 70.179749%, 91.27655%)" offset="0.425781"/><stop stop-opacity="1" stop-color="rgb(23.704529%, 70.539856%, 91.209412%)" offset="0.429687"/><stop stop-opacity="1" stop-color="rgb(23.248291%, 70.898438%, 91.140747%)" offset="0.433594"/><stop stop-opacity="1" stop-color="rgb(22.793579%, 71.258545%, 91.073608%)" offset="0.4375"/><stop stop-opacity="1" stop-color="rgb(22.337341%, 71.618652%, 91.00647%)" offset="0.441406"/><stop stop-opacity="1" stop-color="rgb(21.882629%, 71.97876%, 90.939331%)" offset="0.445312"/><stop stop-opacity="1" stop-color="rgb(21.426392%, 72.338867%, 90.870667%)" offset="0.449219"/><stop stop-opacity="1" stop-color="rgb(20.970154%, 72.698975%, 90.803528%)" offset="0.453125"/><stop stop-opacity="1" stop-color="rgb(20.513916%, 73.059082%, 90.736389%)" offset="0.457031"/><stop stop-opacity="1" stop-color="rgb(20.059204%, 73.419189%, 90.66925%)" offset="0.460937"/><stop stop-opacity="1" stop-color="rgb(19.602966%, 73.779297%, 90.602112%)" offset="0.464844"/><stop stop-opacity="1" stop-color="rgb(19.146729%, 74.139404%, 90.534973%)" offset="0.46875"/><stop stop-opacity="1" stop-color="rgb(18.690491%, 74.499512%, 90.466309%)" offset="0.472656"/><stop stop-opacity="1" stop-color="rgb(18.235779%, 74.859619%, 90.39917%)" offset="0.476562"/><stop stop-opacity="1" stop-color="rgb(17.779541%, 75.218201%, 90.332031%)" offset="0.480469"/><stop stop-opacity="1" stop-color="rgb(17.323303%, 75.578308%, 90.264893%)" offset="0.484375"/><stop stop-opacity="1" stop-color="rgb(16.867065%, 75.938416%, 90.196228%)" offset="0.488281"/><stop stop-opacity="1" stop-color="rgb(16.412354%, 76.298523%, 90.129089%)" offset="0.492188"/><stop stop-opacity="1" stop-color="rgb(15.956116%, 76.65863%, 90.061951%)" offset="0.496094"/><stop stop-opacity="1" stop-color="rgb(15.499878%, 77.018738%, 89.994812%)" offset="0.5"/><stop stop-opacity="1" stop-color="rgb(15.04364%, 77.378845%, 89.927673%)" offset="0.503906"/><stop stop-opacity="1" stop-color="rgb(14.588928%, 77.738953%, 89.860535%)" offset="0.507812"/><stop stop-opacity="1" stop-color="rgb(14.13269%, 78.09906%, 89.79187%)" offset="0.511719"/><stop stop-opacity="1" stop-color="rgb(13.677979%, 78.459167%, 89.724731%)" offset="0.515625"/><stop stop-opacity="1" stop-color="rgb(13.221741%, 78.819275%, 89.657593%)" offset="0.519531"/><stop stop-opacity="1" stop-color="rgb(12.765503%, 79.179382%, 89.590454%)" offset="0.523438"/><stop stop-opacity="1" stop-color="rgb(12.309265%, 79.537964%, 89.523315%)" offset="0.527344"/><stop stop-opacity="1" stop-color="rgb(11.854553%, 79.898071%, 89.456177%)" offset="0.53125"/><stop stop-opacity="1" stop-color="rgb(11.398315%, 80.258179%, 89.387512%)" offset="0.535156"/><stop stop-opacity="1" stop-color="rgb(10.942078%, 80.618286%, 89.320374%)" offset="0.539063"/><stop stop-opacity="1" stop-color="rgb(10.48584%, 80.978394%, 89.253235%)" offset="0.542969"/><stop stop-opacity="1" stop-color="rgb(10.031128%, 81.338501%, 89.186096%)" offset="0.546875"/><stop stop-opacity="1" stop-color="rgb(9.57489%, 81.698608%, 89.117432%)" offset="0.550781"/><stop stop-opacity="1" stop-color="rgb(9.118652%, 82.058716%, 89.050293%)" offset="0.554688"/><stop stop-opacity="1" stop-color="rgb(8.662415%, 82.418823%, 88.983154%)" offset="0.558594"/><stop stop-opacity="1" stop-color="rgb(8.207703%, 82.778931%, 88.916016%)" offset="0.5625"/><stop stop-opacity="1" stop-color="rgb(7.751465%, 83.137512%, 88.848877%)" offset="0.566406"/><stop stop-opacity="1" stop-color="rgb(7.296753%, 83.49762%, 88.781738%)" offset="0.570313"/><stop stop-opacity="1" stop-color="rgb(6.840515%, 83.857727%, 88.713074%)" offset="0.574219"/><stop stop-opacity="1" stop-color="rgb(6.384277%, 84.217834%, 88.645935%)" offset="0.578125"/><stop stop-opacity="1" stop-color="rgb(6.326294%, 84.263611%, 88.63678%)" offset="0.59375"/><stop stop-opacity="1" stop-color="rgb(6.269836%, 84.309387%, 88.62915%)" offset="0.625"/><stop stop-opacity="1" stop-color="rgb(6.269836%, 84.309387%, 88.62915%)" offset="0.699092"/><stop stop-opacity="1" stop-color="rgb(6.269836%, 84.309387%, 88.62915%)" offset="0.75"/><stop stop-opacity="1" stop-color="rgb(6.269836%, 84.309387%, 88.62915%)" offset="1"/></linearGradient><clipPath id="2b9ad71ca6"><rect x="0" width="524" y="0" height="225"/></clipPath><clipPath id="d84c4709bb"><path d="M 0 0 L 523.179688 0 L 523.179688 225 L 0 225 Z M 0 0 " clip-rule="nonzero"/></clipPath><clipPath id="355b018a45"><rect x="0" width="524" y="0" height="225"/></clipPath><clipPath id="09739f23e3"><rect x="0" width="524" y="0" height="225"/></clipPath><mask id="9289915651"><g filter="url(#00b1cdb631)"><g transform="matrix(1, 0, 0, 1, 0, -0.000000000000008531)"><g clip-path="url(#09739f23e3)"><g clip-path="url(#d84c4709bb)"><g transform="matrix(1, 0, 0, 1, 0, -0.000000000000008531)"><g clip-path="url(#355b018a45)"><g fill="#000000" fill-opacity="1"><g transform="translate(4.065323, 150.570681)"><g><path d="M 49.34375 -56.75 C 44.40625 -56.75 40.15625 -54.921875 36.59375 -51.265625 C 33.039062 -47.617188 31.265625 -43.222656 31.265625 -38.078125 C 31.265625 -32.847656 33.039062 -28.40625 36.59375 -24.75 C 40.15625 -21.09375 44.40625 -19.265625 49.34375 -19.265625 C 51.71875 -19.265625 53.96875 -19.5625 56.09375 -20.15625 C 58.21875 -20.75 59.769531 -21.34375 60.75 -21.9375 L 62.09375 -22.828125 L 70.984375 -4.59375 C 70.285156 -4.101562 69.316406 -3.484375 68.078125 -2.734375 C 66.847656 -1.992188 64.035156 -0.984375 59.640625 0.296875 C 55.242188 1.578125 50.53125 2.21875 45.5 2.21875 C 34.332031 2.21875 24.523438 -1.707031 16.078125 -9.5625 C 7.628906 -17.414062 3.40625 -26.820312 3.40625 -37.78125 C 3.40625 -48.851562 7.628906 -58.363281 16.078125 -66.3125 C 24.523438 -74.269531 34.332031 -78.25 45.5 -78.25 C 50.53125 -78.25 55.171875 -77.65625 59.421875 -76.46875 C 63.671875 -75.28125 66.6875 -74.09375 68.46875 -72.90625 L 70.984375 -71.125 L 62.09375 -53.203125 C 58.832031 -55.566406 54.582031 -56.75 49.34375 -56.75 Z M 49.34375 -56.75 "/></g></g></g><g fill="#000000" fill-opacity="1"><g transform="translate(76.824869, 150.570681)"><g><path d="M 8.890625 0 L 8.890625 -127.4375 L 35.125 -127.4375 L 35.125 -68.015625 L 35.421875 -68.015625 C 42.234375 -74.835938 49.492188 -78.25 57.203125 -78.25 C 60.953125 -78.25 64.679688 -77.753906 68.390625 -76.765625 C 72.097656 -75.773438 75.65625 -74.242188 79.0625 -72.171875 C 82.46875 -70.097656 85.234375 -67.15625 87.359375 -63.34375 C 89.484375 -59.539062 90.546875 -55.125 90.546875 -50.09375 L 90.546875 0 L 64.3125 0 L 64.3125 -42.96875 C 64.3125 -46.925781 63.050781 -50.382812 60.53125 -53.34375 C 58.007812 -56.3125 54.726562 -57.796875 50.6875 -57.796875 C 46.726562 -57.796875 43.144531 -56.265625 39.9375 -53.203125 C 36.726562 -50.140625 35.125 -46.726562 35.125 -42.96875 L 35.125 0 Z M 8.890625 0 "/></g></g></g><g fill="#000000" fill-opacity="1"><g transform="translate(174.776114, 150.570681)"><g><path d="M 25.78125 -31.71875 C 30.519531 -31.71875 34.546875 -30.0625 37.859375 -26.75 C 41.171875 -23.4375 42.828125 -19.410156 42.828125 -14.671875 C 42.828125 -10.023438 41.171875 -6.046875 37.859375 -2.734375 C 34.546875 0.566406 30.519531 2.21875 25.78125 2.21875 C 21.132812 2.21875 17.15625 0.566406 13.84375 -2.734375 C 10.539062 -6.046875 8.890625 -10.023438 8.890625 -14.671875 C 8.890625 -19.410156 10.539062 -23.4375 13.84375 -26.75 C 17.15625 -30.0625 21.132812 -31.71875 25.78125 -31.71875 Z M 25.78125 -31.71875 "/></g></g></g></g></g></g></g></g></g></mask><clipPath id="c5e820f471"><path d="M 0 0 L 522.421875 0 L 522.421875 225 L 0 225 Z M 0 0 " clip-rule="nonzero"/></clipPath><clipPath id="e813fabefc"><rect x="0" width="524" y="0" height="225"/></clipPath><clipPath id="f729e55fc5"><rect x="0" width="524" y="0" height="225"/></clipPath><clipPath id="7d7b30722a"><rect x="0" width="524" y="0" height="225"/></clipPath></defs><g transform="matrix(1, 0, 0, 1, 0, -0.000000000000008531)"><g clip-path="url(#7d7b30722a)"><g clip-path="url(#b7d4cc185d)"><g transform="matrix(1, 0, 0, 1, 0, -0.000000000000008531)"><g clip-path="url(#f729e55fc5)"><g clip-path="url(#b5a8cd5e84)"><g mask="url(#9289915651)"><g transform="matrix(1, 0, 0, 1, 0, -0.000000000000008531)"><g clip-path="url(#e813fabefc)"><g clip-path="url(#c5e820f471)"><path fill="url(#9140c88b76)" d="M 0 0 L 0 225 L 522.421875 225 L 522.421875 0 Z M 0 0 " fill-rule="nonzero"/></g></g></g></g></g></g></g></g></g></g><g fill="#e8ecf8" fill-opacity="1"><g transform="translate(583.283063, 149.935895)"><g><path d="M 6.671875 0 L 6.671875 -51.75 L 23.40625 -51.75 C 25.820312 -51.75 28.109375 -51.410156 30.265625 -50.734375 C 32.429688 -50.066406 34.335938 -49.078125 35.984375 -47.765625 C 37.628906 -46.460938 38.925781 -44.863281 39.875 -42.96875 C 40.832031 -41.082031 41.3125 -38.929688 41.3125 -36.515625 C 41.3125 -34.335938 40.875 -32.359375 40 -30.578125 C 39.132812 -28.796875 37.9375 -27.265625 36.40625 -25.984375 C 34.882812 -24.703125 33.148438 -23.71875 31.203125 -23.03125 L 45.59375 0 L 34.9375 0 L 22.1875 -22.125 L 15.96875 -22.125 L 15.96875 0 Z M 16.046875 -29.703125 L 24.25 -29.703125 C 26.707031 -29.828125 28.628906 -30.484375 30.015625 -31.671875 C 31.410156 -32.867188 32.109375 -34.429688 32.109375 -36.359375 C 32.109375 -38.515625 31.332031 -40.234375 29.78125 -41.515625 C 28.238281 -42.796875 26.132812 -43.4375 23.46875 -43.4375 L 16.046875 -43.4375 Z M 16.046875 -29.703125 "/></g></g></g><g fill="#e8ecf8" fill-opacity="1"><g transform="translate(628.649444, 149.935895)"><g><path d="M 20.625 0.734375 C 17.46875 0.734375 14.726562 0.222656 12.40625 -0.796875 C 10.09375 -1.828125 8.164062 -3.234375 6.625 -5.015625 C 5.09375 -6.796875 3.953125 -8.816406 3.203125 -11.078125 C 2.460938 -13.335938 2.09375 -15.703125 2.09375 -18.171875 C 2.09375 -20.554688 2.445312 -22.882812 3.15625 -25.15625 C 3.863281 -27.425781 4.945312 -29.484375 6.40625 -31.328125 C 7.875 -33.171875 9.734375 -34.632812 11.984375 -35.71875 C 14.242188 -36.8125 16.925781 -37.359375 20.03125 -37.359375 C 22.59375 -37.359375 24.816406 -36.984375 26.703125 -36.234375 C 28.597656 -35.492188 30.207031 -34.488281 31.53125 -33.21875 C 32.851562 -31.945312 33.914062 -30.507812 34.71875 -28.90625 C 35.519531 -27.3125 36.097656 -25.648438 36.453125 -23.921875 C 36.804688 -22.203125 36.984375 -20.523438 36.984375 -18.890625 C 36.984375 -18.140625 36.953125 -17.429688 36.890625 -16.765625 C 36.828125 -16.109375 36.75 -15.644531 36.65625 -15.375 L 11.53125 -15.375 C 11.800781 -13.789062 12.285156 -12.394531 12.984375 -11.1875 C 13.679688 -9.976562 14.65625 -9.035156 15.90625 -8.359375 C 17.164062 -7.691406 18.757812 -7.359375 20.6875 -7.359375 C 22.351562 -7.359375 23.914062 -7.648438 25.375 -8.234375 C 26.84375 -8.828125 28.210938 -9.832031 29.484375 -11.25 L 35.625 -5.859375 C 33.625 -3.640625 31.390625 -1.984375 28.921875 -0.890625 C 26.460938 0.191406 23.695312 0.734375 20.625 0.734375 Z M 11.53125 -21.828125 L 28.203125 -21.828125 C 28.203125 -22.242188 28.179688 -22.640625 28.140625 -23.015625 C 28.109375 -23.390625 28.03125 -23.765625 27.90625 -24.140625 C 27.4375 -26.015625 26.484375 -27.429688 25.046875 -28.390625 C 23.609375 -29.359375 21.910156 -29.84375 19.953125 -29.84375 C 18.203125 -29.84375 16.757812 -29.492188 15.625 -28.796875 C 14.488281 -28.109375 13.59375 -27.160156 12.9375 -25.953125 C 12.289062 -24.742188 11.820312 -23.367188 11.53125 -21.828125 Z M 11.53125 -21.828125 "/></g></g></g><g fill="#e8ecf8" fill-opacity="1"><g transform="translate(667.79128, 149.935895)"><g><path d="M 16.328125 0.734375 C 13.765625 0.734375 11.429688 0.269531 9.328125 -0.65625 C 7.234375 -1.582031 5.472656 -2.820312 4.046875 -4.375 C 2.617188 -5.925781 1.597656 -7.640625 0.984375 -9.515625 L 8.09375 -12.671875 C 8.4375 -11.796875 8.898438 -10.890625 9.484375 -9.953125 C 10.066406 -9.023438 10.878906 -8.242188 11.921875 -7.609375 C 12.960938 -6.984375 14.285156 -6.671875 15.890625 -6.671875 C 17.285156 -6.671875 18.414062 -6.894531 19.28125 -7.34375 C 20.144531 -7.789062 20.785156 -8.359375 21.203125 -9.046875 C 21.617188 -9.734375 21.828125 -10.390625 21.828125 -11.015625 C 21.828125 -11.898438 21.492188 -12.601562 20.828125 -13.125 C 20.171875 -13.65625 19.289062 -14.085938 18.1875 -14.421875 C 17.09375 -14.765625 15.894531 -15.09375 14.59375 -15.40625 C 13.289062 -15.726562 11.984375 -16.117188 10.671875 -16.578125 C 9.367188 -17.046875 8.164062 -17.660156 7.0625 -18.421875 C 5.96875 -19.179688 5.085938 -20.164062 4.421875 -21.375 C 3.765625 -22.582031 3.4375 -24.113281 3.4375 -25.96875 C 3.4375 -27.894531 3.804688 -29.570312 4.546875 -31 C 5.296875 -32.425781 6.304688 -33.609375 7.578125 -34.546875 C 8.847656 -35.492188 10.300781 -36.195312 11.9375 -36.65625 C 13.570312 -37.125 15.269531 -37.359375 17.03125 -37.359375 C 20.175781 -37.359375 22.925781 -36.648438 25.28125 -35.234375 C 27.644531 -33.816406 29.519531 -31.875 30.90625 -29.40625 L 23.984375 -25.640625 C 23.566406 -26.390625 23.046875 -27.117188 22.421875 -27.828125 C 21.804688 -28.535156 21.035156 -29.117188 20.109375 -29.578125 C 19.179688 -30.046875 18.054688 -30.28125 16.734375 -30.28125 C 15.265625 -30.28125 14.109375 -29.96875 13.265625 -29.34375 C 12.429688 -28.726562 12.015625 -27.992188 12.015625 -27.140625 C 12.015625 -26.359375 12.347656 -25.722656 13.015625 -25.234375 C 13.691406 -24.742188 14.582031 -24.320312 15.6875 -23.96875 C 16.800781 -23.613281 18.015625 -23.253906 19.328125 -22.890625 C 20.648438 -22.523438 21.96875 -22.070312 23.28125 -21.53125 C 24.601562 -21 25.816406 -20.316406 26.921875 -19.484375 C 28.035156 -18.648438 28.925781 -17.585938 29.59375 -16.296875 C 30.269531 -15.003906 30.609375 -13.394531 30.609375 -11.46875 C 30.609375 -9.34375 30.191406 -7.515625 29.359375 -5.984375 C 28.535156 -4.460938 27.429688 -3.203125 26.046875 -2.203125 C 24.671875 -1.203125 23.140625 -0.460938 21.453125 0.015625 C 19.773438 0.492188 18.066406 0.734375 16.328125 0.734375 Z M 16.328125 0.734375 "/></g></g></g><g fill="#e8ecf8" fill-opacity="1"><g transform="translate(700.928184, 149.935895)"><g><path d="M 20.625 0.734375 C 17.46875 0.734375 14.726562 0.222656 12.40625 -0.796875 C 10.09375 -1.828125 8.164062 -3.234375 6.625 -5.015625 C 5.09375 -6.796875 3.953125 -8.816406 3.203125 -11.078125 C 2.460938 -13.335938 2.09375 -15.703125 2.09375 -18.171875 C 2.09375 -20.554688 2.445312 -22.882812 3.15625 -25.15625 C 3.863281 -27.425781 4.945312 -29.484375 6.40625 -31.328125 C 7.875 -33.171875 9.734375 -34.632812 11.984375 -35.71875 C 14.242188 -36.8125 16.925781 -37.359375 20.03125 -37.359375 C 22.59375 -37.359375 24.816406 -36.984375 26.703125 -36.234375 C 28.597656 -35.492188 30.207031 -34.488281 31.53125 -33.21875 C 32.851562 -31.945312 33.914062 -30.507812 34.71875 -28.90625 C 35.519531 -27.3125 36.097656 -25.648438 36.453125 -23.921875 C 36.804688 -22.203125 36.984375 -20.523438 36.984375 -18.890625 C 36.984375 -18.140625 36.953125 -17.429688 36.890625 -16.765625 C 36.828125 -16.109375 36.75 -15.644531 36.65625 -15.375 L 11.53125 -15.375 C 11.800781 -13.789062 12.285156 -12.394531 12.984375 -11.1875 C 13.679688 -9.976562 14.65625 -9.035156 15.90625 -8.359375 C 17.164062 -7.691406 18.757812 -7.359375 20.6875 -7.359375 C 22.351562 -7.359375 23.914062 -7.648438 25.375 -8.234375 C 26.84375 -8.828125 28.210938 -9.832031 29.484375 -11.25 L 35.625 -5.859375 C 33.625 -3.640625 31.390625 -1.984375 28.921875 -0.890625 C 26.460938 0.191406 23.695312 0.734375 20.625 0.734375 Z M 11.53125 -21.828125 L 28.203125 -21.828125 C 28.203125 -22.242188 28.179688 -22.640625 28.140625 -23.015625 C 28.109375 -23.390625 28.03125 -23.765625 27.90625 -24.140625 C 27.4375 -26.015625 26.484375 -27.429688 25.046875 -28.390625 C 23.609375 -29.359375 21.910156 -29.84375 19.953125 -29.84375 C 18.203125 -29.84375 16.757812 -29.492188 15.625 -28.796875 C 14.488281 -28.109375 13.59375 -27.160156 12.9375 -25.953125 C 12.289062 -24.742188 11.820312 -23.367188 11.53125 -21.828125 Z M 11.53125 -21.828125 "/></g></g></g><g fill="#e8ecf8" fill-opacity="1"><g transform="translate(740.07002, 149.935895)"><g><path d="M 18.609375 -37.359375 C 21.921875 -37.359375 24.753906 -36.71875 27.109375 -35.4375 C 29.472656 -34.15625 31.28125 -32.367188 32.53125 -30.078125 C 33.789062 -27.796875 34.421875 -25.164062 34.421875 -22.1875 L 34.421875 0 L 27.0625 0 L 26.515625 -4.90625 C 25.734375 -3.664062 24.710938 -2.625 23.453125 -1.78125 C 22.191406 -0.9375 20.828125 -0.304688 19.359375 0.109375 C 17.898438 0.523438 16.476562 0.734375 15.09375 0.734375 C 12.601562 0.734375 10.347656 0.269531 8.328125 -0.65625 C 6.316406 -1.582031 4.722656 -2.941406 3.546875 -4.734375 C 2.378906 -6.535156 1.796875 -8.707031 1.796875 -11.25 C 1.796875 -13.21875 2.164062 -14.878906 2.90625 -16.234375 C 3.65625 -17.597656 4.6875 -18.6875 6 -19.5 C 7.320312 -20.320312 8.859375 -20.914062 10.609375 -21.28125 C 12.367188 -21.644531 14.273438 -21.828125 16.328125 -21.828125 L 26.296875 -21.828125 C 26.242188 -23.628906 25.984375 -25.097656 25.515625 -26.234375 C 25.054688 -27.367188 24.289062 -28.203125 23.21875 -28.734375 C 22.144531 -29.273438 20.628906 -29.546875 18.671875 -29.546875 C 17.285156 -29.546875 16.035156 -29.300781 14.921875 -28.8125 C 13.804688 -28.332031 12.847656 -27.703125 12.046875 -26.921875 C 11.242188 -26.140625 10.570312 -25.296875 10.03125 -24.390625 L 3.21875 -29.328125 C 4.394531 -30.941406 5.710938 -32.347656 7.171875 -33.546875 C 8.640625 -34.742188 10.3125 -35.675781 12.1875 -36.34375 C 14.070312 -37.019531 16.210938 -37.359375 18.609375 -37.359375 Z M 16.875 -6.8125 C 18.707031 -6.8125 20.296875 -7.203125 21.640625 -7.984375 C 22.984375 -8.765625 24.054688 -9.78125 24.859375 -11.03125 C 25.671875 -12.289062 26.160156 -13.644531 26.328125 -15.09375 L 26.328125 -15.375 L 16.875 -15.375 C 14.851562 -15.375 13.359375 -14.921875 12.390625 -14.015625 C 11.429688 -13.117188 10.953125 -12.097656 10.953125 -10.953125 C 10.953125 -9.753906 11.4375 -8.765625 12.40625 -7.984375 C 13.382812 -7.203125 14.875 -6.8125 16.875 -6.8125 Z M 16.875 -6.8125 "/></g></g></g><g fill="#e8ecf8" fill-opacity="1"><g transform="translate(778.699253, 149.935895)"><g><path d="M 5.3125 0 L 5.3125 -36.578125 L 14.03125 -36.578125 L 14.03125 -30.4375 C 14.5625 -31.925781 15.332031 -33.179688 16.34375 -34.203125 C 17.363281 -35.234375 18.523438 -36.015625 19.828125 -36.546875 C 21.140625 -37.085938 22.476562 -37.359375 23.84375 -37.359375 C 25.0625 -37.359375 26.257812 -37.144531 27.4375 -36.71875 C 28.625 -36.289062 29.660156 -35.625 30.546875 -34.71875 L 26.484375 -27.390625 C 25.234375 -28.222656 23.898438 -28.640625 22.484375 -28.640625 C 21.429688 -28.640625 20.398438 -28.390625 19.390625 -27.890625 C 18.378906 -27.390625 17.460938 -26.609375 16.640625 -25.546875 C 15.828125 -24.484375 15.175781 -23.113281 14.6875 -21.4375 C 14.195312 -19.769531 13.953125 -17.773438 13.953125 -15.453125 L 13.953125 0 Z M 5.3125 0 "/></g></g></g><g fill="#e8ecf8" fill-opacity="1"><g transform="translate(806.892985, 149.935895)"><g><path d="M 19.8125 0.734375 C 16.832031 0.734375 14.226562 0.207031 12 -0.84375 C 9.78125 -1.894531 7.9375 -3.316406 6.46875 -5.109375 C 5.007812 -6.898438 3.914062 -8.929688 3.1875 -11.203125 C 2.457031 -13.472656 2.09375 -15.816406 2.09375 -18.234375 C 2.09375 -20.628906 2.453125 -22.96875 3.171875 -25.25 C 3.890625 -27.53125 4.972656 -29.578125 6.421875 -31.390625 C 7.878906 -33.210938 9.71875 -34.660156 11.9375 -35.734375 C 14.15625 -36.816406 16.753906 -37.359375 19.734375 -37.359375 C 23.378906 -37.359375 26.578125 -36.460938 29.328125 -34.671875 C 32.085938 -32.890625 34.164062 -30.179688 35.5625 -26.546875 L 27.0625 -23.25 C 26.601562 -25.007812 25.722656 -26.453125 24.421875 -27.578125 C 23.128906 -28.703125 21.566406 -29.265625 19.734375 -29.265625 C 18.203125 -29.265625 16.890625 -28.953125 15.796875 -28.328125 C 14.710938 -27.703125 13.828125 -26.859375 13.140625 -25.796875 C 12.460938 -24.734375 11.960938 -23.546875 11.640625 -22.234375 C 11.328125 -20.929688 11.171875 -19.597656 11.171875 -18.234375 C 11.171875 -16.847656 11.328125 -15.503906 11.640625 -14.203125 C 11.960938 -12.910156 12.457031 -11.742188 13.125 -10.703125 C 13.800781 -9.671875 14.679688 -8.851562 15.765625 -8.25 C 16.847656 -7.65625 18.171875 -7.359375 19.734375 -7.359375 C 21.546875 -7.359375 23.101562 -7.898438 24.40625 -8.984375 C 25.71875 -10.078125 26.601562 -11.476562 27.0625 -13.1875 L 35.1875 -10.109375 C 34.382812 -7.835938 33.238281 -5.890625 31.75 -4.265625 C 30.257812 -2.640625 28.5 -1.398438 26.46875 -0.546875 C 24.445312 0.304688 22.226562 0.734375 19.8125 0.734375 Z M 19.8125 0.734375 "/></g></g></g><g fill="#e8ecf8" fill-opacity="1"><g transform="translate(843.654817, 149.935895)"><g><path d="M 5.390625 0 L 5.390625 -51.75 L 14.46875 -51.75 L 14.46875 -32.34375 C 15.925781 -34.144531 17.609375 -35.429688 19.515625 -36.203125 C 21.421875 -36.972656 23.265625 -37.359375 25.046875 -37.359375 C 27.441406 -37.359375 29.492188 -36.921875 31.203125 -36.046875 C 32.910156 -35.179688 34.304688 -34.007812 35.390625 -32.53125 C 36.484375 -31.0625 37.285156 -29.410156 37.796875 -27.578125 C 38.304688 -25.742188 38.5625 -23.875 38.5625 -21.96875 L 38.5625 0 L 29.484375 0 L 29.484375 -20.84375 C 29.484375 -22.351562 29.304688 -23.742188 28.953125 -25.015625 C 28.597656 -26.285156 27.945312 -27.3125 27 -28.09375 C 26.0625 -28.875 24.691406 -29.265625 22.890625 -29.265625 C 20.984375 -29.265625 19.40625 -28.789062 18.15625 -27.84375 C 16.914062 -26.90625 15.988281 -25.625 15.375 -24 C 14.769531 -22.375 14.46875 -20.550781 14.46875 -18.53125 L 14.46875 0 Z M 5.390625 0 "/></g></g></g><g fill="#e8ecf8" fill-opacity="1"><g transform="translate(227.513412, 149.05611)"><g><path d="M 36.5625 0.953125 C 32.132812 0.953125 28.160156 0.347656 24.640625 -0.859375 C 21.128906 -2.066406 18.078125 -3.753906 15.484375 -5.921875 C 12.890625 -8.085938 10.734375 -10.625 9.015625 -13.53125 C 7.296875 -16.445312 6.015625 -19.617188 5.171875 -23.046875 C 4.328125 -26.484375 3.90625 -30.050781 3.90625 -33.75 C 3.90625 -37.4375 4.328125 -41 5.171875 -44.4375 C 6.015625 -47.875 7.285156 -51.046875 8.984375 -53.953125 C 10.691406 -56.867188 12.832031 -59.421875 15.40625 -61.609375 C 17.988281 -63.804688 21.035156 -65.507812 24.546875 -66.71875 C 28.066406 -67.9375 32.039062 -68.546875 36.46875 -68.546875 C 40.914062 -68.546875 45.03125 -67.800781 48.8125 -66.3125 C 52.601562 -64.832031 55.953125 -62.65625 58.859375 -59.78125 C 61.773438 -56.90625 64.144531 -53.363281 65.96875 -49.15625 L 54.65625 -44.671875 C 53.820312 -47.628906 52.519531 -50.003906 50.75 -51.796875 C 48.988281 -53.597656 46.882812 -54.910156 44.4375 -55.734375 C 41.988281 -56.566406 39.300781 -56.984375 36.375 -56.984375 C 32.8125 -56.984375 29.738281 -56.394531 27.15625 -55.21875 C 24.582031 -54.039062 22.46875 -52.398438 20.8125 -50.296875 C 19.15625 -48.203125 17.925781 -45.78125 17.125 -43.03125 C 16.332031 -40.28125 15.9375 -37.34375 15.9375 -34.21875 C 15.9375 -30.875 16.332031 -27.765625 17.125 -24.890625 C 17.925781 -22.015625 19.160156 -19.5 20.828125 -17.34375 C 22.503906 -15.195312 24.640625 -13.523438 27.234375 -12.328125 C 29.828125 -11.140625 32.9375 -10.546875 36.5625 -10.546875 C 40.914062 -10.546875 44.597656 -11.5 47.609375 -13.40625 C 50.617188 -15.320312 53.03125 -18.535156 54.84375 -23.046875 L 66.0625 -18.46875 C 64.28125 -14.269531 61.929688 -10.726562 59.015625 -7.84375 C 56.109375 -4.96875 52.757812 -2.78125 48.96875 -1.28125 C 45.1875 0.207031 41.050781 0.953125 36.5625 0.953125 Z M 36.5625 0.953125 "/></g></g></g><g fill="#e8ecf8" fill-opacity="1"><g transform="translate(294.47508, 149.05611)"><g><path d="M 24.25 -48.6875 C 28.570312 -48.6875 32.269531 -47.847656 35.34375 -46.171875 C 38.414062 -44.503906 40.769531 -42.179688 42.40625 -39.203125 C 44.039062 -36.234375 44.859375 -32.804688 44.859375 -28.921875 L 44.859375 0 L 35.265625 0 L 34.5625 -6.390625 C 33.539062 -4.773438 32.207031 -3.414062 30.5625 -2.3125 C 28.925781 -1.21875 27.15625 -0.398438 25.25 0.140625 C 23.34375 0.679688 21.484375 0.953125 19.671875 0.953125 C 16.421875 0.953125 13.484375 0.347656 10.859375 -0.859375 C 8.234375 -2.066406 6.15625 -3.835938 4.625 -6.171875 C 3.101562 -8.515625 2.34375 -11.34375 2.34375 -14.65625 C 2.34375 -17.226562 2.828125 -19.394531 3.796875 -21.15625 C 4.765625 -22.925781 6.109375 -24.34375 7.828125 -25.40625 C 9.546875 -26.476562 11.550781 -27.253906 13.84375 -27.734375 C 16.132812 -28.210938 18.613281 -28.453125 21.28125 -28.453125 L 34.265625 -28.453125 C 34.203125 -30.804688 33.867188 -32.722656 33.265625 -34.203125 C 32.660156 -35.679688 31.65625 -36.769531 30.25 -37.46875 C 28.851562 -38.164062 26.882812 -38.515625 24.34375 -38.515625 C 22.53125 -38.515625 20.898438 -38.195312 19.453125 -37.5625 C 18.003906 -36.925781 16.753906 -36.097656 15.703125 -35.078125 C 14.648438 -34.054688 13.773438 -32.957031 13.078125 -31.78125 L 4.203125 -38.234375 C 5.722656 -40.328125 7.4375 -42.15625 9.34375 -43.71875 C 11.257812 -45.28125 13.441406 -46.5 15.890625 -47.375 C 18.335938 -48.25 21.125 -48.6875 24.25 -48.6875 Z M 22 -8.875 C 24.382812 -8.875 26.453125 -9.382812 28.203125 -10.40625 C 29.953125 -11.425781 31.351562 -12.753906 32.40625 -14.390625 C 33.457031 -16.023438 34.09375 -17.785156 34.3125 -19.671875 L 34.3125 -20.046875 L 22 -20.046875 C 19.363281 -20.046875 17.414062 -19.457031 16.15625 -18.28125 C 14.894531 -17.101562 14.265625 -15.765625 14.265625 -14.265625 C 14.265625 -12.710938 14.898438 -11.425781 16.171875 -10.40625 C 17.453125 -9.382812 19.394531 -8.875 22 -8.875 Z M 22 -8.875 "/></g></g></g><g fill="#e8ecf8" fill-opacity="1"><g transform="translate(344.827685, 149.05611)"><g><path d="M 6.921875 0 L 6.921875 -47.6875 L 18.5625 -47.6875 L 18.5625 -42.140625 C 19.832031 -43.703125 21.253906 -44.957031 22.828125 -45.90625 C 24.410156 -46.863281 26.035156 -47.566406 27.703125 -48.015625 C 29.378906 -48.460938 30.992188 -48.6875 32.546875 -48.6875 C 35.671875 -48.6875 38.335938 -48.117188 40.546875 -46.984375 C 42.753906 -45.859375 44.550781 -44.332031 45.9375 -42.40625 C 47.320312 -40.476562 48.335938 -38.320312 48.984375 -35.9375 C 49.640625 -33.550781 49.96875 -31.117188 49.96875 -28.640625 L 49.96875 0 L 38.328125 0 L 38.328125 -27.15625 C 38.328125 -29.257812 37.984375 -31.117188 37.296875 -32.734375 C 36.617188 -34.359375 35.601562 -35.628906 34.25 -36.546875 C 32.894531 -37.472656 31.210938 -37.9375 29.203125 -37.9375 C 25.929688 -37.9375 23.335938 -37.003906 21.421875 -35.140625 C 19.515625 -33.285156 18.5625 -30.273438 18.5625 -26.109375 L 18.5625 0 Z M 6.921875 0 "/></g></g></g><g fill="#e8ecf8" fill-opacity="1"><g transform="translate(400.33487, 149.05611)"><g><path d="M 8.6875 0 L 8.6875 -67.4375 L 20.8125 -67.4375 L 20.8125 -39.28125 L 50.359375 -39.28125 L 50.359375 -67.4375 L 62.484375 -67.4375 L 62.484375 0 L 50.359375 0 L 50.359375 -28.15625 L 20.8125 -28.15625 L 20.8125 0 Z M 8.6875 0 "/></g></g></g><g fill="#e8ecf8" fill-opacity="1"><g transform="translate(471.305769, 149.05611)"><g><path d="M 24.25 -48.6875 C 28.570312 -48.6875 32.269531 -47.847656 35.34375 -46.171875 C 38.414062 -44.503906 40.769531 -42.179688 42.40625 -39.203125 C 44.039062 -36.234375 44.859375 -32.804688 44.859375 -28.921875 L 44.859375 0 L 35.265625 0 L 34.5625 -6.390625 C 33.539062 -4.773438 32.207031 -3.414062 30.5625 -2.3125 C 28.925781 -1.21875 27.15625 -0.398438 25.25 0.140625 C 23.34375 0.679688 21.484375 0.953125 19.671875 0.953125 C 16.421875 0.953125 13.484375 0.347656 10.859375 -0.859375 C 8.234375 -2.066406 6.15625 -3.835938 4.625 -6.171875 C 3.101562 -8.515625 2.34375 -11.34375 2.34375 -14.65625 C 2.34375 -17.226562 2.828125 -19.394531 3.796875 -21.15625 C 4.765625 -22.925781 6.109375 -24.34375 7.828125 -25.40625 C 9.546875 -26.476562 11.550781 -27.253906 13.84375 -27.734375 C 16.132812 -28.210938 18.613281 -28.453125 21.28125 -28.453125 L 34.265625 -28.453125 C 34.203125 -30.804688 33.867188 -32.722656 33.265625 -34.203125 C 32.660156 -35.679688 31.65625 -36.769531 30.25 -37.46875 C 28.851562 -38.164062 26.882812 -38.515625 24.34375 -38.515625 C 22.53125 -38.515625 20.898438 -38.195312 19.453125 -37.5625 C 18.003906 -36.925781 16.753906 -36.097656 15.703125 -35.078125 C 14.648438 -34.054688 13.773438 -32.957031 13.078125 -31.78125 L 4.203125 -38.234375 C 5.722656 -40.328125 7.4375 -42.15625 9.34375 -43.71875 C 11.257812 -45.28125 13.441406 -46.5 15.890625 -47.375 C 18.335938 -48.25 21.125 -48.6875 24.25 -48.6875 Z M 22 -8.875 C 24.382812 -8.875 26.453125 -9.382812 28.203125 -10.40625 C 29.953125 -11.425781 31.351562 -12.753906 32.40625 -14.390625 C 33.457031 -16.023438 34.09375 -17.785156 34.3125 -19.671875 L 34.3125 -20.046875 L 22 -20.046875 C 19.363281 -20.046875 17.414062 -19.457031 16.15625 -18.28125 C 14.894531 -17.101562 14.265625 -15.765625 14.265625 -14.265625 C 14.265625 -12.710938 14.898438 -11.425781 16.171875 -10.40625 C 17.453125 -9.382812 19.394531 -8.875 22 -8.875 Z M 22 -8.875 "/></g></g></g><g fill="#e8ecf8" fill-opacity="1"><g transform="translate(520.799198, 149.05611)"><g><path d="M 19.046875 0 L -0.375 -47.6875 L 12.3125 -47.6875 L 23.859375 -15.03125 L 35.46875 -47.6875 L 48.109375 -47.6875 L 28.640625 0 Z M 19.046875 0 "/></g></g></g><g fill="#e8ecf8" fill-opacity="1"><g transform="translate(568.482152, 149.05611)"><g/></g></g></svg>